HIERARCHY
ROOT Hips
{
	OFFSET -3.958830 18.904000 13.208200
	CHANNELS 6 Xposition Yposition Zposition Zrotation Yrotation Xrotation 
	JOINT LHipJoint
	{
		OFFSET 0.000000 0.000000 0.000000
		CHANNELS 3 Zrotation Yrotation Xrotation
		JOINT LeftUpLeg
		{
			OFFSET 1.800000 -1.400000 0.085000
			CHANNELS 3 Zrotation Yrotation Xrotation
			JOINT LeftLeg
			{
				OFFSET 2.215000 -6.000000 0.000000
				CHANNELS 3 Zrotation Yrotation Xrotation
				JOINT LeftFoot
				{
					OFFSET 2.500000 -6.900000 0.000000
					CHANNELS 3 Zrotation Yrotation Xrotation
					JOINT LeftToeBase
					{
						OFFSET 0.200000 -0.500000 1.950000
						CHANNELS 3 Zrotation Yrotation Xrotation
						End Site
						{
							OFFSET 0.000000 0.000000 0.000000
						}
					}
				}
			}
		}
	}
	JOINT RHipJoint
	{
		OFFSET 0.000000 0.000000 0.000000
		CHANNELS 3 Zrotation Yrotation Xrotation
		JOINT RightUpLeg
		{
			OFFSET -1.800000 -1.400000 0.085000
			CHANNELS 3 Zrotation Yrotation Xrotation
			JOINT RightLeg
			{
				OFFSET -2.215000 -6.000000 0.000000
				CHANNELS 3 Zrotation Yrotation Xrotation
				JOINT RightFoot
				{
					OFFSET -2.500000 -6.900000 0.000000
					CHANNELS 3 Zrotation Yrotation Xrotation
					JOINT RightToeBase
					{
						OFFSET -0.200000 -0.500000 1.950000
						CHANNELS 3 Zrotation Yrotation Xrotation
						End Site
						{
							OFFSET 0.000000 0.000000 0.000000
						}
					}
				}
			}
		}
	}
	JOINT LowerBack
	{
		OFFSET 0.000000 0.000000 0.000000
		CHANNELS 3 Zrotation Yrotation Xrotation
		JOINT Spine
		{
			OFFSET -0.087000 1.940000 -0.288900
			CHANNELS 3 Zrotation Yrotation Xrotation
			JOINT Spine1
			{
				OFFSET 0.000000 1.950000 0.060000
				CHANNELS 3 Zrotation Yrotation Xrotation
				JOINT Neck
				{
					OFFSET 0.000000 0.000000 0.000000
					CHANNELS 3 Zrotation Yrotation Xrotation
					JOINT Neck1
					{
						OFFSET 0.000000 1.600000 0.340000
						CHANNELS 3 Zrotation Yrotation Xrotation
						JOINT Head
						{
							OFFSET 0.000000 1.667000 -0.240000
							CHANNELS 3 Zrotation Yrotation Xrotation
							End Site
							{
								OFFSET 0.000000 0.000000 0.000000
							}
						}
					}
				}
				JOINT LeftShoulder
				{
					OFFSET 0.000000 0.000000 0.000000
					CHANNELS 3 Zrotation Yrotation Xrotation
					JOINT LeftArm
					{
						OFFSET 2.700000 1.550000 -0.730000
						CHANNELS 3 Zrotation Yrotation Xrotation
						JOINT LeftForeArm
						{
							OFFSET 5.450000 0.000000 0.000000
							CHANNELS 3 Zrotation Yrotation Xrotation
							JOINT LeftHand
							{
								OFFSET 3.450000 0.000000 0.000000
								CHANNELS 3 Zrotation Yrotation Xrotation
								JOINT LeftHandIndex1
								{
									OFFSET 0.750000 0.000000 0.000000
									CHANNELS 3 Zrotation Yrotation Xrotation
									End Site
									{
										OFFSET 0.000000 0.000000 0.000000
									}
								}
							}
						}
					}
				}
				JOINT RightShoulder
				{
					OFFSET 0.000000 0.000000 0.000000
					CHANNELS 3 Zrotation Yrotation Xrotation
					JOINT RightArm
					{
						OFFSET -2.700000 1.550000 -0.730000
						CHANNELS 3 Zrotation Yrotation Xrotation
						JOINT RightForeArm
						{
							OFFSET -5.450000 0.000000 0.000000
							CHANNELS 3 Zrotation Yrotation Xrotation
							JOINT RightHand
							{
								OFFSET -3.450000 0.000000 0.000000
								CHANNELS 3 Zrotation Yrotation Xrotation
								JOINT RightHandIndex1
								{
									OFFSET -0.750000 0.000000 0.000000
									CHANNELS 3 Zrotation Yrotation Xrotation
									End Site
									{
										OFFSET 0.000000 0.000000 0.000000
									}
								}
							}
						}
					}
				}
			}
		}
	}
}
MOTION
Frames: 13
Frame Time: 0.016667
0.753690 17.524730 -2.256370 2.788482 -39.709630 -0.025311 -15.006646 11.091040 5.903513 -5.097978 -12.268264 -46.633319 4.097793 7.716029 58.095647 0.549115 9.929638 1.187038 0.141350 -0.399800 0.386170 18.551542 -10.977843 2.301247 -6.421862 2.585777 -11.583747 9.206871 -8.431393 25.290980 -0.410270 -4.878504 2.600003 -0.242870 0.350480 0.503810 -4.648010 0.799439 -8.411327 21.311889 1.399669 27.142182 -5.917275 6.038297 4.899649 3.217207 -4.945913 -8.590521 -7.922971 8.119240 38.587342 -14.862500 9.097500 -6.042030 -14.624969 5.612579 0.166546 -41.413971 4.488491 -7.274603 -28.043982 -50.079951 10.725169 -3.744048 3.355720 0.609070 0.227750 0.012240 0.067060 7.033494 2.451306 6.200923 66.201097 17.954767 1.142942 -166.624035 65.222008 -174.498832 1.986887 -1.936557 -0.231230 0.036710 0.120300 -0.219610 
0.804090 17.526520 -2.259050 4.610282 -36.184050 -0.882852 -14.942634 11.190168 5.677538 -7.845001 -11.818964 -44.236621 3.927686 4.825085 43.187581 -0.110351 6.746270 2.231393 0.126730 -0.414030 0.373890 18.571126 -11.100095 2.408437 -7.017629 2.634161 -10.611498 10.962384 -9.656411 27.703925 -0.500606 -5.507845 2.365013 -0.230180 0.362330 0.512990 -4.610695 0.788917 -8.284919 20.131030 2.070093 26.020730 -5.248949 6.034564 6.221624 2.884377 -4.070332 -8.635251 -6.765319 6.153965 37.497489 -14.908960 8.286480 -5.030580 -14.885120 3.625065 0.565080 -37.292268 3.757870 -6.824156 -31.120712 -54.961813 13.415849 -3.773075 3.466915 0.573320 0.260520 -0.020270 0.053820 8.116658 3.373189 6.329739 62.312899 16.672247 -0.154401 -164.766098 64.995879 -172.120134 1.975313 -1.974991 -0.237290 0.013970 0.135200 -0.225580 
0.846060 17.473010 -2.232290 6.467508 -32.708620 -0.745040 -14.893496 11.280597 5.357863 -10.348329 -10.709142 -41.393143 1.252399 3.554044 26.635300 -0.640409 3.829392 3.325046 0.096980 -0.433500 0.332290 18.591196 -11.156086 2.519502 -7.488835 2.521822 -9.842457 13.160955 -10.611904 27.977646 -0.555989 -5.904887 2.245758 -0.210990 0.453550 0.515150 -4.606396 0.717727 -8.137914 18.401815 2.842808 23.454300 -4.287913 5.729810 7.253587 2.032975 -3.500081 -8.267502 -6.119493 5.004379 35.720506 -13.686760 7.312830 -4.332820 -14.393150 3.030234 0.735433 -32.928357 3.696580 -5.888757 -35.922997 -58.180837 16.984796 -3.853053 3.510577 0.533560 0.325330 -0.068080 0.069570 9.444609 2.862691 5.978628 58.554271 14.675337 -1.130730 -165.146821 65.527129 -172.370203 1.925451 -1.981899 -0.271300 0.066090 0.161190 -0.206140 
0.891940 17.377960 -2.193010 7.028295 -30.982415 1.792538 -14.851297 11.140766 5.108612 -10.564433 -9.612264 -40.643529 -3.383118 3.037859 11.774172 -0.893442 2.336688 3.910816 0.073320 -0.428930 0.267580 18.670383 -11.156682 2.562777 -6.132921 2.606658 -10.885438 13.583970 -10.488593 27.421787 -0.501670 -5.910928 2.255793 -0.180840 0.545870 0.552900 -4.804336 0.989260 -7.970646 18.245977 4.267008 18.074979 -3.895891 6.054297 8.638282 1.446911 -3.048157 -7.804931 -5.552608 3.778826 33.889271 -13.165360 6.560400 -1.828930 -13.813487 3.107033 0.687656 -29.722140 2.905559 -4.443445 -37.896157 -61.625058 19.755622 -3.984390 3.626220 0.414350 0.438980 -0.148230 0.076020 10.052941 1.703174 5.798657 55.752629 12.005828 -1.528967 -166.908026 66.242267 -174.363988 1.845010 -2.065210 -0.256210 0.049630 0.194550 -0.173680 
0.950410 17.263750 -2.173560 7.709513 -29.951360 4.184499 -14.865691 10.882874 5.096101 -9.550408 -9.458081 -41.605352 -7.905140 2.741563 3.505389 -0.939519 2.306717 4.010534 0.010800 -0.458340 0.165670 18.731783 -11.079598 2.468088 -4.303302 2.447369 -12.008518 12.097280 -9.400127 25.765674 -0.348258 -5.544639 2.443134 -0.141220 0.723140 0.523180 -4.926411 1.217497 -7.825038 17.716545 5.585662 13.494360 -3.539404 6.551354 9.679724 0.774285 -3.090945 -7.454615 -5.679306 2.976674 31.853352 -12.048290 5.416290 0.998710 -12.641927 3.319964 0.690894 -27.189190 1.679863 -2.789472 -38.887877 -65.586193 22.365417 -4.132084 3.641733 0.302560 0.574130 -0.273200 0.116620 10.257581 1.136636 5.706497 52.556194 10.177126 -1.673111 -168.723401 67.850581 -176.418200 1.755083 -2.092073 -0.322940 0.142940 0.233400 -0.130520 
1.024260 17.159030 -2.174040 8.937406 -28.810552 4.587271 -14.903377 10.820324 5.191082 -9.960912 -9.939591 -42.651011 -8.135560 2.754516 3.363342 -0.977195 2.361039 4.044382 -0.009010 -0.485840 0.143080 18.730983 -11.018581 2.380793 -3.496028 2.038137 -11.902541 10.593309 -8.500226 24.107209 -0.243533 -5.201455 2.591745 -0.112990 0.808080 0.475480 -4.862747 1.116022 -7.776693 16.743844 5.977315 12.327850 -3.471359 6.774827 9.741486 0.117495 -3.789065 -7.336478 -7.021533 2.393478 30.604201 -10.897910 3.897870 2.009420 -12.057236 3.243844 0.612026 -24.689062 0.634441 -1.763663 -37.242481 -69.718550 23.126598 -4.187802 3.608811 0.277130 0.609770 -0.339910 0.139690 10.924738 1.682843 5.779122 49.343121 8.774412 -2.530024 -169.653010 69.691242 -177.418223 1.728493 -2.077420 -0.389840 0.223420 0.241210 -0.120710 
1.097750 17.061400 -2.185650 9.184367 -27.307467 4.478030 -14.904706 10.841532 5.331768 -10.310621 -10.561937 -44.415435 -5.361075 3.252230 10.325429 -0.977623 2.496184 3.973084 -0.019990 -0.499700 0.132310 18.747425 -11.014665 2.348358 -2.060705 1.597897 -11.404290 8.271534 -7.637201 23.426883 -0.183373 -4.906896 2.697693 -0.111410 0.802250 0.449000 -4.844066 0.996247 -7.775376 17.312848 5.518829 12.729260 -4.168895 6.622957 9.617947 -0.115530 -4.567631 -7.659888 -8.547134 1.994169 30.105188 -10.648500 3.150240 2.049810 -11.763228 2.588114 0.908882 -22.290550 0.892689 -1.497079 -34.311289 -75.218458 23.046485 -4.197973 3.591232 0.284140 0.592430 -0.353160 0.131040 11.007551 2.757049 6.032177 47.125118 7.251330 -4.506418 -174.567761 72.620833 176.195873 1.706791 -2.014276 -0.407740 0.232860 0.250620 -0.125270 
1.166540 16.995570 -2.197560 8.982546 -26.187068 3.690214 -14.868202 10.859035 5.495929 -10.022176 -11.209054 -45.578439 -1.338680 3.592720 21.082998 -0.825226 3.323728 3.641633 -0.015690 -0.510020 0.115820 18.783697 -11.047264 2.358355 -0.980931 1.453552 -10.958316 6.453349 -7.248819 24.304641 -0.198179 -4.835392 2.731226 -0.137030 0.783470 0.439490 -4.919286 0.997178 -7.867809 19.149418 4.597230 14.828643 -5.918052 6.528681 8.485140 -0.136758 -5.421401 -7.931742 -10.284526 2.117666 30.593614 -9.636910 2.499270 1.909560 -12.327729 2.094291 1.102815 -20.534486 1.336020 -1.509691 -28.569204 -81.399448 20.658577 -4.165685 3.564535 0.325970 0.545710 -0.335430 0.144830 11.390659 3.751259 6.123501 45.905504 5.390940 -8.097695 166.173403 77.205868 154.044357 1.647739 -1.685315 -0.401580 0.228140 0.247120 -0.120000 
1.225630 16.952840 -2.203250 7.701251 -25.700472 3.457612 -14.822476 10.890395 5.539061 -7.835620 -11.361761 -46.357725 1.917493 3.862955 32.501500 -0.536324 4.924287 3.002371 0.027250 -0.475760 0.139500 18.837504 -11.053785 2.397411 0.588376 1.651398 -11.135975 4.636963 -6.914475 26.128946 -0.259685 -4.828189 2.715011 -0.155090 0.693570 0.446890 -5.061855 1.081637 -7.907291 22.461210 3.337268 17.213565 -9.022169 6.452980 6.228317 0.277080 -6.234180 -7.872436 -11.958265 1.926829 30.842030 -9.288260 2.106280 0.547400 -12.297214 3.144184 0.752794 -20.303091 1.084707 -1.547306 -15.942070 -87.188941 11.471323 -4.072470 3.576664 0.383690 0.464500 -0.275920 0.144580 10.061552 3.104774 5.466599 48.647724 5.275170 -7.824123 100.105935 83.220374 80.914431 3.497838 4.279195 -0.357470 0.176030 0.220770 -0.128950 
1.289180 16.929280 -2.192020 6.237726 -24.781023 4.332324 -14.732875 10.851288 5.436131 -5.239470 -11.044377 -46.171913 3.874175 4.219826 41.131728 -0.295329 6.517132 2.421815 0.026700 -0.491250 0.125940 18.928215 -11.093933 2.485631 1.358952 2.690804 -13.562174 4.089740 -7.187402 29.815167 -0.319931 -5.077262 2.611553 -0.167280 0.677810 0.433400 -5.328502 1.455874 -7.930372 26.169630 2.170542 17.646829 -11.778065 6.262936 4.139767 0.175216 -6.916867 -7.562521 -13.104366 2.247915 31.244221 -8.590400 1.990220 0.044930 -12.590828 3.873933 -0.607487 -21.827638 1.723804 -4.565865 -128.931142 -87.876509 128.294694 -3.804689 2.503417 0.436280 0.429150 -0.267590 0.147860 10.336642 2.579191 6.484727 50.219759 4.061289 -6.065909 44.950082 79.580262 28.784843 2.050870 -1.936403 -0.374480 0.177110 0.229720 -0.142270 
1.345700 16.884690 -2.172810 5.570279 -22.718823 6.413913 -14.727142 10.809786 5.281432 -3.550935 -10.832475 -45.435371 3.369157 5.155417 45.262502 -0.060162 7.467146 2.146632 -0.056880 -0.576720 0.035670 18.952642 -10.889425 2.672399 0.259291 4.694554 -18.589012 6.859123 -9.067544 35.032288 -0.400386 -5.843245 2.361176 -0.222550 0.770820 0.431700 -5.357418 1.482772 -8.000104 27.754971 1.904923 16.523323 -13.718578 6.065830 1.890085 0.451164 -7.085083 -7.636705 -12.877712 1.845418 29.517059 -7.928930 1.892650 3.021580 -12.703254 7.138594 0.670680 -24.412869 -1.570421 2.558289 128.844059 -79.684436 -127.229951 -4.295726 3.274270 0.367130 0.492220 -0.332960 0.172910 9.843527 -0.329061 5.381453 53.645344 1.947906 -7.484668 37.140664 67.751090 19.417681 1.978633 -1.955677 -0.385190 0.174040 0.250390 -0.103100 
1.387510 16.849040 -2.162750 4.703523 -21.656676 8.531672 -14.737089 10.785811 4.920576 -1.581533 -9.884143 -44.171288 2.623985 6.201751 46.988142 0.028400 8.032413 1.977630 -0.110270 -0.639120 -0.029220 18.984316 -10.519441 3.060467 -1.519505 7.197658 -24.494769 10.238541 -11.789227 41.029027 -0.596223 -7.039356 1.957591 -0.246830 0.846620 0.436740 -5.414665 1.331929 -8.032237 28.812860 1.816384 15.032980 -14.165470 5.711398 0.047923 0.394332 -7.691151 -6.765666 -13.695323 1.691217 28.048067 -7.642950 1.530270 4.484590 -13.525570 9.432076 -0.071451 -28.478208 -2.836723 2.774041 140.560990 -75.821984 -136.870450 -4.280037 3.506477 0.327490 0.549250 -0.394280 0.178830 10.520482 -2.630288 4.371843 55.117027 0.381945 -8.177932 30.382857 56.673458 12.831393 1.954816 -1.851333 -0.404210 0.184290 0.290380 -0.089370 
1.392670 16.785220 -2.160060 4.950831 -20.606149 10.601762 -14.780380 10.705627 4.479260 -0.644815 -9.025807 -42.577761 3.016036 6.507346 47.070984 0.028362 8.172086 1.942904 -0.170340 -0.686970 -0.113600 19.016756 -10.048072 3.563681 -4.997091 9.321957 -31.565764 13.643689 -15.129714 46.765712 -0.835369 -8.494081 1.473094 -0.245110 0.939870 0.445840 -5.435441 1.121670 -8.033493 27.223996 2.159208 12.365808 -13.452984 5.261577 0.009080 0.134617 -7.829593 -6.041882 -13.472033 1.633195 25.796244 -7.028550 1.295530 5.776840 -12.767359 11.564401 -0.003468 -34.685227 -3.925277 3.544281 143.681879 -70.108888 -137.102850 -4.357128 3.541676 0.253950 0.631910 -0.473890 0.176470 10.279781 -5.129051 2.898210 58.018598 0.048210 -8.532272 22.920091 43.917265 6.821094 1.969240 -1.705012 -0.424850 0.194250 0.345140 -0.068320 
